# AST/ASF file generated using VICON BodyLanguage
# -----------------------------------------------
:version 1.10
:name VICON
:units
  mass 1.0
  length 0.45
  angle deg
:documentation
   .ast/.asf automatically generated from VICON data using
   VICON BodyBuilder and BodyLanguage model FoxedUp or BRILLIANT.MOD
:root
   order TX TY TZ RX RY RZ
   axis XYZ
   position 0 0 0  
   orientation 0 0 0 
:bonedata
  begin
     id 1 
     name lhipjoint
     direction 0.537252 -0.787203 0.302774 
     length 2.29576 
     axis 0 0 0  XYZ
  end
  begin
     id 2 
     name lfemur
     direction 0.34202 -0.939693 0  
     length 7.31114  
     axis 0 0 20  XYZ
    dof rx ry rz
    limits (-160.0 20.0)
           (-70.0 70.0)
           (-60.0 70.0)
  end
  begin
     id 3 
     name ltibia
     direction 0.34202 -0.939693 0   
     length 8.36008   
     axis 0 0 20   XYZ
    dof rx
    limits (-10.0 170.0)
  end
  begin
     id 4 
     name lfoot
     direction 0.0969116 -0.266263 0.959016   
     length 2.16704   
     axis -90 7.62852e-016 20   XYZ
    dof rx rz
    limits (-45.0 90.0)
           (-70.0 20.0)
  end
  begin
     id 5 
     name ltoes
     direction 1.53563e-011 -4.21779e-011 1   
     length 1.08338   
     axis -90 7.62852e-016 20   XYZ
    dof rx
    limits (-90.0 20.0)
  end
  begin
     id 6 
     name rhipjoint
     direction -0.588228 -0.754791 0.290308   
     length 2.39434  
     axis 0 0 0  XYZ 
  end
  begin
     id 7 
     name rfemur
     direction -0.34202 -0.939693 0   
     length 7.45207   
     axis 0 0 -20   XYZ
    dof rx ry rz
    limits (-160.0 20.0)
           (-70.0 70.0)
           (-70.0 60.0)
  end
  begin
     id 8 
     name rtibia
     direction -0.34202 -0.939693 0   
     length 8.03565   
     axis 0 0 -20   XYZ
    dof rx
    limits (-10.0 170.0)
 end
 begin
     id 9 
     name rfoot
     direction -0.107009 -0.294004 0.949795   
     length 2.11509  
     axis -90 -7.62852e-016 -20   XYZ
    dof rx rz
    limits (-45.0 90.0)
           (-20.0 70.0)
  end
  begin
     id 10 
     name rtoes
     direction -1.53533e-011 -4.22004e-011 1   
     length 1.05493   
     axis -90 -7.62852e-016 -20   XYZ
    dof rx
    limits (-90.0 20.0)
  end
  begin
     id 11 
     name lowerback
     direction -0.0115208 0.997969 -0.0626515   
     length 2.03153   
     axis 0 0 0   XYZ
    dof rx ry rz
    limits (-20.0 45.0)
           (-30.0 30.0)
           (-30.0 30.0)
  end
  begin
     id 12 
     name upperback
     direction -0.00423475 0.999974 -0.00583614   
     length 2.03619   
     axis 0 0 0   XYZ
    dof rx ry rz
    limits (-20.0 45.0)
           (-30.0 30.0)
           (-30.0 30.0)
  end
  begin
     id 13 
     name thorax
     direction 0.00289429 0.999728 0.0231573   
     length 2.03921   
     axis 0 0 0   XYZ
    dof rx ry rz
    limits (-20.0 45.0)
           (-30.0 30.0)
           (-30.0 30.0)
  end
  begin
     id 14 
     name lowerneck
     direction 0.0188995 0.987777 0.154721   
     length 1.78836   
     axis 0 0 0   XYZ
    dof rx ry rz
    limits (-20.0 45.0)
           (-30.0 30.0)
           (-30.0 30.0)
  end
  begin
     id 15 
     name upperneck
     direction -0.00612612 0.992995 -0.118   
     length 1.81789   
     axis 0 0 0   XYZ
    dof rx ry rz
    limits (-20.0 45.0)
           (-30.0 30.0)
           (-30.0 30.0)
  end
  begin
     id 16
     name head
     direction -0.00420226 0.998397 -0.0564482  
     length 1.82234  
     axis 0 0 0   XYZ
    dof rx ry rz
    limits (-20.0 45.0)
           (-30.0 30.0)
           (-30.0 30.0)
  end
  begin
     id 17 
     name lclavicle
     direction 0.916488 0.396539 0.0529676  
     length 3.51732  
     axis 0 0 0   XYZ
    dof ry rz
    limits (-20.0 10.0)
           (0.0 20.0)
  end
  begin
     id 18 
     name lhumerus
     direction 1 -4.4896e-011 8.36962e-028   
     length 5.45077   
     axis 180 -30 -90   XYZ
    dof rx ry rz
    limits (-60.0 90.0)
           (-90.0 90.0)
           (-90.0 90.0)
  end
  begin
     id 19
     name lradius
     direction 1 -4.48962e-011 3.01407e-027   
     length 3.05488   
     axis 180 -30 -90   XYZ
    dof rx
    limits (-10.0 170.0)
  end
  begin
     id 20
     name lwrist
     direction 1 -4.49002e-011 4.72961e-027   
     length 1.52744   
     axis -2.72261e-015 90 90   XYZ
    dof ry
    limits (-180.0 0.0)
 end
  begin
     id 21 
     name lhand
     direction 1 -4.4899e-011 9.45681e-027   
     length 0.638818   
     axis -6.0311e-015 90 90   XYZ
    dof rx rz
    limits (-90.0 90.0)
           (-45.0 45.0)
  end
  begin
     id 22 
     name lfingers
     direction 1 -4.48871e-011 1.88632e-026   
     length 0.515032   
     axis -1.20625e-014 90 90   XYZ
    dof rx
    limits (0.0 90.0)
  end
  begin
     id 23
     name lthumb
     direction 0.707107 -6.34964e-011 0.707107   
     length 0.739485   
     axis -90 45 6.32835e-014   XYZ
    dof rx rz
    limits (-45.0 45.0)
           (-45.0 45.0)
  end
  begin
     id 24 
     name rclavicle
     direction -0.949427 0.303202 0.0815894   
     length 3.76167  
     axis 0 0 0   XYZ 
    dof ry rz
    limits (-10.0 20.0)
           (-20.0 0.0)
  end
  begin
     id 25 
     name rhumerus
     direction -1 -4.48971e-011 -6.43969e-018  
     length 4.88702   
     axis 180 30 90   XYZ
    dof rx ry rz
    limits (-90.0 60.0)
           (-90.0 90.0)
           (-90.0 90.0)
  end
  begin
     id 26 
     name rradius
     direction -1 -4.48987e-011 5.46662e-027   
     length 3.22603   
     axis 180 30 90   XYZ
    dof rx
    limits (-10.0 170.0)
  end
  begin
     id 27 
     name rwrist
     direction -1 -4.48956e-011 4.72476e-027   
     length 1.61302   
     axis -2.72261e-015 -90 -90   XYZ
    dof ry
    limits (-180.0 0.0)
  end
  begin
     id 28
     name rhand
     direction -1 -4.4889e-011 9.43571e-027   
     length 0.716293   
     axis -6.0311e-015 -90 -90   XYZ
    dof rx rz
    limits (-90.0 90.0)
           (-45.0 45.0)
  end
  begin
     id 29
     name rfingers
     direction -1 -4.48887e-011 1.88701e-026   
     length 0.577494   
     axis -1.20625e-014 -90 -90   XYZ
    dof rx
    limits (0.0 90.0)
  end
  begin
     id 30
     name rthumb
     direction -0.707107 -6.34825e-011 0.707107   
     length 0.829169   
     axis -90 -45 -6.32835e-014   XYZ
    dof rx rz
    limits (-45.0 45.0)
           (-45.0 45.0)
  end
:hierarchy
  begin
    root lhipjoint rhipjoint lowerback
    lhipjoint lfemur
    lfemur ltibia
    ltibia lfoot
    lfoot ltoes
    rhipjoint rfemur
    rfemur rtibia
    rtibia rfoot
    rfoot rtoes
    lowerback upperback
    upperback thorax
    thorax lowerneck lclavicle rclavicle
    lowerneck upperneck
    upperneck head
    lclavicle lhumerus
    lhumerus lradius
    lradius lwrist
    lwrist lhand lthumb
    lhand lfingers
    rclavicle rhumerus
    rhumerus rradius
    rradius rwrist
    rwrist rhand rthumb
    rhand rfingers
  end

#!OML:ASF F:\VICON\USERDATA\INSTALL\rory3\rory3.ASF
:FULLY-SPECIFIED
:DEGREES
281
root 1.5373 18.508 0.333392 148.658 87.8316 136.381
lowerback -11.4931 0.113135 -0.295336
upperback -3.58884 0.3532 -0.918525
thorax 2.69966 0.23268 -0.73629
lowerneck -22.3695 -0.8951 1.58947
upperneck 20.3325 -1.74943 0.096549
head 10.1704 -0.638956 -0.485738
rclavicle 6.2027e-015 -4.17448e-015
rhumerus -26.5882 -1.02475 -53.2011
rradius 92.3635
rwrist -34.6392
rhand -11.1114 8.14169
rfingers 7.12502
rthumb 14.9132 -21.3015
lclavicle 6.2027e-015 -4.17448e-015
lhumerus -27.5973 5.5142 45.7335
lradius 103.564
lwrist 47.4456
lhand -8.12261 34.5696
lfingers 7.12502
lthumb 17.7909 63.7758
rfemur -4.7628 -7.91885 15.8614
rtibia -7.15625e-015
rfoot -6.06925 6.21781
rtoes -11.911
lfemur -13.9523 7.89464 -18.8355
ltibia 16.0257
lfoot -13.3394 -6.068
ltoes -27.4027
282
root 1.53578 18.5079 0.3324 147.978 87.7643 135.63
lowerback -11.4345 0.118556 -0.339053
upperback -3.57559 0.366154 -0.972964
thorax 2.68165 0.238739 -0.76658
lowerneck -22.4521 -0.889932 1.62743
upperneck 20.0352 -1.77054 0.142387
head 10.0785 -0.645458 -0.478058
rclavicle -7.31114e-016 1.2921e-014
rhumerus -26.9983 -1.15287 -52.5193
rradius 91.9956
rwrist -33.4181
rhand -11.2934 7.97204
rfingers 7.12502
rthumb 14.7378 -21.484
lclavicle -7.31114e-016 1.2921e-014
lhumerus -27.9527 5.43531 44.8945
lradius 103.223
lwrist 46.6448
lhand -8.56792 34.8379
lfingers 7.12502
lthumb 17.3623 64.0824
rfemur -4.83812 -7.96724 15.8018
rtibia 1.43125e-014
rfoot -6.03707 6.22734
rtoes -12.0956
lfemur -14.0582 7.81674 -18.9155
ltibia 16.0436
lfoot -13.3631 -6.00751
ltoes -27.5457
283
root 1.53387 18.5084 0.332441 149.254 87.7549 136.866
lowerback -11.3569 0.124435 -0.328632
upperback -3.54837 0.370131 -0.965056
thorax 2.66761 0.239937 -0.763912
lowerneck -22.5571 -0.886396 1.64755
upperneck 19.7855 -1.77573 0.138465
head 10.0075 -0.651446 -0.483081
rclavicle 2.73174e-015 7.15625e-015
rhumerus -27.3758 -1.23819 -51.7778
rradius 91.6684
rwrist -32.4889
rhand -11.2741 7.93373
rfingers 7.12502
rthumb 14.7564 -21.521
lclavicle 2.73174e-015 7.15625e-015
lhumerus -28.3163 5.42943 44.1355
lradius 102.922
lwrist 45.8173
lhand -9.30949 34.9707
lfingers 7.12502
lthumb 16.6485 64.2767
rfemur -4.89153 -8.00132 15.8526
rtibia -8.74653e-015
rfoot -6.05268 6.21226
rtoes -12.2122
lfemur -14.1222 7.75943 -18.8812
ltibia 16.0589
lfoot -13.3306 -5.98652
ltoes -27.3094
284
root 1.5324 18.5091 0.330383 151.5 87.6534 139.093
lowerback -11.2528 0.0909504 -0.314092
upperback -3.5316 0.321523 -0.958411
thorax 2.62759 0.215103 -0.771977
lowerneck -22.6545 -0.899887 1.54111
upperneck 19.5481 -1.79609 0.279414
head 9.94256 -0.655844 -0.418447
rclavicle 1.73587e-015 3.97569e-016
rhumerus -27.7635 -1.30304 -51.069
rradius 91.3663
rwrist -31.6267
rhand -11.1265 8.11851
rfingers 7.12502
rthumb 14.8987 -21.3257
lclavicle 1.73587e-015 3.97569e-016
lhumerus -28.7277 5.44936 43.4842
lradius 102.646
lwrist 44.9559
lhand -10.1107 34.83
lfingers 7.12502
lthumb 15.8771 64.1991
rfemur -4.90636 -8.13537 15.8782
rtibia -5.56597e-015
rfoot -6.08885 6.16565
rtoes -12.5217
lfemur -14.1831 7.69276 -18.8728
ltibia 16.0944
lfoot -13.3157 -6.06112
ltoes -27.0144
285
root 1.52968 18.5101 0.329659 154.262 87.5911 141.811
lowerback -11.1735 0.0679703 -0.276992
upperback -3.53375 0.284882 -0.937971
thorax 2.58156 0.196602 -0.776703
lowerneck -22.6856 -0.909898 1.49435
upperneck 19.2881 -1.81546 0.363846
head 9.85661 -0.662448 -0.382972
rclavicle -3.69072e-015 4.57205e-015
rhumerus -28.2001 -1.33042 -50.3341
rradius 91.1836
rwrist -30.6923
rhand -11.0838 8.08763
rfingers 7.12502
rthumb 14.9398 -21.3536
lclavicle -3.69072e-015 4.57205e-015
lhumerus -29.1313 5.45576 42.8143
lradius 102.327
lwrist 44.2182
lhand -10.2963 34.5954
lfingers 7.12502
lthumb 15.6983 63.9787
rfemur -4.94522 -8.24521 15.956
rtibia 1.90833e-014
rfoot -6.09723 6.1779
rtoes -12.4501
lfemur -14.272 7.60457 -18.8044
ltibia 16.1191
lfoot -13.2649 -6.07847
ltoes -27.0345
286
root 1.52512 18.5116 0.331427 155.075 87.63 142.588
lowerback -11.0866 0.0951477 -0.257019
upperback -3.49133 0.315872 -0.94144
thorax 2.57855 0.210917 -0.787644
lowerneck -22.8912 -0.909275 1.53866
upperneck 19.1129 -1.84342 0.397525
head 9.83069 -0.670734 -0.383083
rclavicle 9.18214e-015 -3.57812e-015
rhumerus -28.5919 -1.51052 -49.5915
rradius 90.9168
rwrist -29.1731
rhand -10.9094 8.11856
rfingers 7.12502
rthumb 15.1078 -21.3101
lclavicle 9.18214e-015 -3.57812e-015
lhumerus -29.4051 5.46009 42.0797
lradius 102.011
lwrist 43.4618
lhand -10.1286 34.3874
lfingers 7.12502
lthumb 15.8598 63.7579
rfemur -4.99581 -8.22507 16.0138
rtibia 2.38542e-015
rfoot -6.0805 6.19874
rtoes -12.1685
lfemur -14.3253 7.58229 -18.7496
ltibia 16.1138
lfoot -13.2275 -6.01215
ltoes -27.0708
287
root 1.52139 18.5126 0.331705 154.258 87.5833 141.749
lowerback -10.9774 0.10052 -0.349497
upperback -3.43974 0.329328 -0.936556
thorax 2.57209 0.2164 -0.728953
lowerneck -23.0638 -0.908109 1.51265
upperneck 18.8523 -1.84503 0.430309
head 9.76916 -0.673763 -0.367542
rclavicle 5.46347e-015 7.65321e-015
rhumerus -28.9004 -1.62554 -48.7839
rradius 90.6839
rwrist -27.7673
rhand -10.8258 8.21529
rfingers 7.12502
rthumb 15.1883 -21.2073
lclavicle 5.46347e-015 7.65321e-015
lhumerus -29.6438 5.5812 41.4451
lradius 101.64
lwrist 42.6486
lhand -9.99607 34.0323
lfingers 7.12502
lthumb 15.9874 63.3926
rfemur -5.03172 -8.25392 15.9611
rtibia 0
rfoot -6.08821 6.2024
rtoes -12.2991
lfemur -14.3263 7.57207 -18.8192
ltibia 16.0317
lfoot -13.1523 -5.98555
ltoes -27.0548
288
root 1.52185 18.5136 0.33164 153.161 87.5323 140.644
lowerback -10.9119 0.126295 -0.439938
upperback -3.38838 0.371028 -0.948327
thorax 2.58954 0.236103 -0.684944
lowerneck -23.1907 -0.940484 1.47328
upperneck 18.5721 -1.87864 0.429761
head 9.69211 -0.696889 -0.365892
rclavicle -7.70368e-015 -6.85807e-015
rhumerus -29.2504 -1.68677 -48.0204
rradius 90.5413
rwrist -26.3534
rhand -11.3145 8.02479
rfingers 7.12502
rthumb 14.7175 -21.4328
lclavicle -7.70368e-015 -6.85807e-015
lhumerus -29.8873 5.52287 40.8322
lradius 101.263
lwrist 41.8751
lhand -9.84348 33.5746
lfingers 7.12502
lthumb 16.1344 62.923
rfemur -5.03092 -8.28198 15.8815
rtibia -1.35174e-014
rfoot -6.08693 6.22264
rtoes -12.2745
lfemur -14.2817 7.57413 -18.8991
ltibia 15.9241
lfoot -13.1111 -6.01311
ltoes -27.0757
289
root 1.5262 18.5134 0.328633 149.181 87.3716 136.64
lowerback -10.935 0.0929448 -0.689336
upperback -3.33844 0.355474 -1.0069
thorax 2.65301 0.227702 -0.607085
lowerneck -23.2398 -0.913056 1.58034
upperneck 18.2571 -1.84971 0.311459
head 9.58684 -0.695216 -0.419373
rclavicle 5.28022e-016 7.15625e-015
rhumerus -29.5523 -1.62033 -47.3763
rradius 90.4707
rwrist -24.9083
rhand -11.9386 7.6869
rfingers 7.12502
rthumb 14.1161 -21.8136
lclavicle 5.28022e-016 7.15625e-015
lhumerus -30.243 5.35153 40.1368
lradius 100.998
lwrist 41.0326
lhand -9.77541 33.3845
lfingers 7.12502
lthumb 16.1999 62.7276
rfemur -5.01826 -8.34777 15.598
rtibia -1.35174e-014
rfoot -6.07945 6.26781
rtoes -12.185
lfemur -14.2219 7.57727 -19.1861
ltibia 15.8066
lfoot -13.1364 -6.0666
ltoes -27.3343
290
root 1.52598 18.5139 0.326192 148.904 87.2706 136.316
lowerback -10.9134 0.0607496 -0.760744
upperback -3.31065 0.321111 -1.04769
thorax 2.66969 0.210116 -0.613656
lowerneck -23.3326 -0.869607 1.70367
upperneck 17.9883 -1.82252 0.265926
head 9.50672 -0.683315 -0.450592
rclavicle 6.83012e-015 -1.35174e-014
rhumerus -29.8225 -1.66081 -46.7901
rradius 90.2992
rwrist -23.1566
rhand -12.0926 7.76984
rfingers 7.12502
rthumb 13.9677 -21.741
lclavicle 6.83012e-015 -1.35174e-014
lhumerus -30.458 5.40484 39.4312
lradius 100.619
lwrist 39.8138
lhand -9.68796 33.1062
lfingers 7.12502
lthumb 16.2841 62.4425
rfemur -5.05473 -8.43392 15.5162
rtibia -1.51076e-014
rfoot -6.08014 6.32959
rtoes -12.1189
lfemur -14.209 7.46343 -19.2798
ltibia 15.6964
lfoot -13.104 -6.00367
ltoes -27.5534
291
root 1.52387 18.5141 0.324707 150.574 87.2667 137.939
lowerback -10.8591 0.0664262 -0.704991
upperback -3.30685 0.321358 -1.0505
thorax 2.64414 0.210034 -0.648068
lowerneck -23.3704 -0.843019 1.79001
upperneck 17.7021 -1.80819 0.237727
head 9.41151 -0.678265 -0.47109
rclavicle 3.63403e-015 8.94531e-016
rhumerus -30.0763 -1.73845 -46.125
rradius 90.0765
rwrist -21.2141
rhand -11.6328 7.78809
rfingers 7.12502
rthumb 14.4108 -21.6916
lclavicle 3.63403e-015 8.94531e-016
lhumerus -30.5222 5.60555 38.7549
lradius 100.19
lwrist 38.3693
lhand -9.41485 33.125
lfingers 7.12502
lthumb 16.5471 62.4395
rfemur -5.1181 -8.47992 15.5851
rtibia 3.97569e-015
rfoot -6.03846 6.31489
rtoes -11.9057
lfemur -14.2391 7.45223 -19.2274
ltibia 15.6245
lfoot -13.022 -6.05958
ltoes -27.279
292
root 1.52304 18.5141 0.321179 149.913 87.2251 137.242
lowerback -10.829 0.0549515 -0.74119
upperback -3.29186 0.309216 -1.05629
thorax 2.64301 0.203636 -0.635311
lowerneck -23.4093 -0.808245 1.84226
upperneck 17.418 -1.76082 0.164125
head 9.31749 -0.665756 -0.497037
rclavicle 2.5345e-015 -8.15017e-015
rhumerus -30.2494 -1.75696 -45.4321
rradius 89.8935
rwrist -19.3305
rhand -10.9428 7.96443
rfingers 7.12502
rthumb 15.0756 -21.4666
lclavicle 2.5345e-015 -8.15017e-015
lhumerus -30.6304 5.8925 38.1122
lradius 99.8078
lwrist 36.9767
lhand -9.00564 33.1768
lfingers 7.12502
lthumb 16.941 62.458
rfemur -5.16043 -8.5064 15.5135
rtibia -7.95139e-015
rfoot -5.99833 6.2887
rtoes -11.8366
lfemur -14.2942 7.39041 -19.298
ltibia 15.6456
lfoot -13.0203 -6.02112
ltoes -27.168
293
root 1.52205 18.5138 0.318104 151.889 87.179 139.202
lowerback -10.8015 0.0268693 -0.672201
upperback -3.26705 0.262407 -1.03602
thorax 2.65354 0.1798 -0.659207
lowerneck -23.4142 -0.801475 1.87733
upperneck 17.1112 -1.75133 0.118916
head 9.21011 -0.668818 -0.515371
rclavicle 8.10669e-016 1.78906e-015
rhumerus -30.4284 -1.67819 -44.733
rradius 89.762
rwrist -17.573
rhand -10.6998 8.12585
rfingers 7.12502
rthumb 15.3097 -21.2875
lclavicle 8.10669e-016 1.78906e-015
lhumerus -30.8035 6.06547 37.4905
lradius 99.5845
lwrist 35.9814
lhand -9.00717 33.5039
lfingers 7.12502
lthumb 16.9395 62.7852
rfemur -5.1635 -8.59635 15.566
rtibia -7.15625e-015
rfoot -6.00369 6.29301
rtoes -11.9838
lfemur -14.3634 7.36589 -19.2524
ltibia 15.7071
lfoot -13.0263 -6.11052
ltoes -26.9496
294
root 1.52104 18.5159 0.317967 153.975 87.1649 141.26
lowerback -10.7643 -0.00939951 -0.63756
upperback -3.22986 0.206731 -0.98793
thorax 2.67133 0.151246 -0.636056
lowerneck -23.5453 -0.769729 1.91828
upperneck 16.8206 -1.71569 0.085755
head 9.13074 -0.657275 -0.527521
rclavicle 2.61526e-015 -3.13086e-014
rhumerus -30.4962 -1.63992 -44.0626
rradius 89.5831
rwrist -15.707
rhand -10.6324 8.07896
rfingers 7.12502
rthumb 15.3746 -21.3294
lclavicle 2.61526e-015 -3.13086e-014
lhumerus -31.0348 6.17389 36.8814
lradius 99.5149
lwrist 35.4622
lhand -9.55104 33.9039
lfingers 7.12502
lthumb 16.4159 63.2293
rfemur -5.18214 -8.65681 15.6576
rtibia 1.27222e-014
rfoot -6.04044 6.31865
rtoes -12.173
lfemur -14.4358 7.34121 -19.1732
ltibia 15.7613
lfoot -13.0397 -6.12671
ltoes -26.9741
295
root 1.51565 18.5165 0.319524 155.833 87.2016 143.073
lowerback -10.6549 -0.0120411 -0.565775
upperback -3.23639 0.192049 -0.956089
thorax 2.6045 0.143668 -0.645447
lowerneck -23.7154 -0.753852 1.91882
upperneck 16.5843 -1.70251 0.112719
head 9.07785 -0.65077 -0.516038
rclavicle 2.65409e-015 2.28602e-015
rhumerus -30.6101 -1.57738 -43.392
rradius 89.3989
rwrist -13.8772
rhand -10.6186 7.81701
rfingers 7.12502
rthumb 15.3879 -21.5903
lclavicle 2.65409e-015 2.28602e-015
lhumerus -31.2323 6.16673 36.2178
lradius 99.3942
lwrist 35.0862
lhand -9.85755 34.348
lfingers 7.12502
lthumb 16.1208 63.6976
rfemur -5.2543 -8.6608 15.7811
rtibia 6.36111e-015
rfoot -6.01574 6.32691
rtoes -11.9804
lfemur -14.5205 7.34141 -19.0698
ltibia 15.7902
lfoot -13.041 -6.09106
ltoes -27.1316
